# AST/ASF file generated using VICON BodyLanguage
# -----------------------------------------------
:version 1.10
:name VICON
:units
  mass 1.0
  length 0.45
  angle deg
:documentation
   .ast/.asf automatically generated from VICON data using
   VICON BodyBuilder and BodyLanguage model FoxedUp or BRILLIANT.MOD
:root
   order TX TY TZ RX RY RZ
   axis XYZ
   position 0 0 0  
   orientation 0 0 0 
:bonedata
  begin
     id 1 
     name lhipjoint
     direction 0.537252 -0.787203 0.302774 
     length 2.29576 
     axis 0 0 0  XYZ
  end
  begin
     id 2 
     name lfemur
     direction 0.34202 -0.939693 0  
     length 7.31114  
     axis 0 0 20  XYZ
    dof rx ry rz
    limits (-160.0 20.0)
           (-70.0 70.0)
           (-60.0 70.0)
  end
  begin
     id 3 
     name ltibia
     direction 0.34202 -0.939693 0   
     length 8.36008   
     axis 0 0 20   XYZ
    dof rx
    limits (-10.0 170.0)
  end
  begin
     id 4 
     name lfoot
     direction 0.0969116 -0.266263 0.959016   
     length 2.16704   
     axis -90 7.62852e-016 20   XYZ
    dof rx rz
    limits (-45.0 90.0)
           (-70.0 20.0)
  end
  begin
     id 5 
     name ltoes
     direction 1.53563e-011 -4.21779e-011 1   
     length 1.08338   
     axis -90 7.62852e-016 20   XYZ
    dof rx
    limits (-90.0 20.0)
  end
  begin
     id 6 
     name rhipjoint
     direction -0.588228 -0.754791 0.290308   
     length 2.39434  
     axis 0 0 0  XYZ 
  end
  begin
     id 7 
     name rfemur
     direction -0.34202 -0.939693 0   
     length 7.45207   
     axis 0 0 -20   XYZ
    dof rx ry rz
    limits (-160.0 20.0)
           (-70.0 70.0)
           (-70.0 60.0)
  end
  begin
     id 8 
     name rtibia
     direction -0.34202 -0.939693 0   
     length 8.03565   
     axis 0 0 -20   XYZ
    dof rx
    limits (-10.0 170.0)
 end
 begin
     id 9 
     name rfoot
     direction -0.107009 -0.294004 0.949795   
     length 2.11509  
     axis -90 -7.62852e-016 -20   XYZ
    dof rx rz
    limits (-45.0 90.0)
           (-20.0 70.0)
  end
  begin
     id 10 
     name rtoes
     direction -1.53533e-011 -4.22004e-011 1   
     length 1.05493   
     axis -90 -7.62852e-016 -20   XYZ
    dof rx
    limits (-90.0 20.0)
  end
  begin
     id 11 
     name lowerback
     direction -0.0115208 0.997969 -0.0626515   
     length 2.03153   
     axis 0 0 0   XYZ
    dof rx ry rz
    limits (-20.0 45.0)
           (-30.0 30.0)
           (-30.0 30.0)
  end
  begin
     id 12 
     name upperback
     direction -0.00423475 0.999974 -0.00583614   
     length 2.03619   
     axis 0 0 0   XYZ
    dof rx ry rz
    limits (-20.0 45.0)
           (-30.0 30.0)
           (-30.0 30.0)
  end
  begin
     id 13 
     name thorax
     direction 0.00289429 0.999728 0.0231573   
     length 2.03921   
     axis 0 0 0   XYZ
    dof rx ry rz
    limits (-20.0 45.0)
           (-30.0 30.0)
           (-30.0 30.0)
  end
  begin
     id 14 
     name lowerneck
     direction 0.0188995 0.987777 0.154721   
     length 1.78836   
     axis 0 0 0   XYZ
    dof rx ry rz
    limits (-20.0 45.0)
           (-30.0 30.0)
           (-30.0 30.0)
  end
  begin
     id 15 
     name upperneck
     direction -0.00612612 0.992995 -0.118   
     length 1.81789   
     axis 0 0 0   XYZ
    dof rx ry rz
    limits (-20.0 45.0)
           (-30.0 30.0)
           (-30.0 30.0)
  end
  begin
     id 16
     name head
     direction -0.00420226 0.998397 -0.0564482  
     length 1.82234  
     axis 0 0 0   XYZ
    dof rx ry rz
    limits (-20.0 45.0)
           (-30.0 30.0)
           (-30.0 30.0)
  end
  begin
     id 17 
     name lclavicle
     direction 0.916488 0.396539 0.0529676  
     length 3.51732  
     axis 0 0 0   XYZ
    dof ry rz
    limits (-20.0 10.0)
           (0.0 20.0)
  end
  begin
     id 18 
     name lhumerus
     direction 1 -4.4896e-011 8.36962e-028   
     length 5.45077   
     axis 180 -30 -90   XYZ
    dof rx ry rz
    limits (-60.0 90.0)
           (-90.0 90.0)
           (-90.0 90.0)
  end
  begin
     id 19
     name lradius
     direction 1 -4.48962e-011 3.01407e-027   
     length 3.05488   
     axis 180 -30 -90   XYZ
    dof rx
    limits (-10.0 170.0)
  end
  begin
     id 20
     name lwrist
     direction 1 -4.49002e-011 4.72961e-027   
     length 1.52744   
     axis -2.72261e-015 90 90   XYZ
    dof ry
    limits (-180.0 0.0)
 end
  begin
     id 21 
     name lhand
     direction 1 -4.4899e-011 9.45681e-027   
     length 0.638818   
     axis -6.0311e-015 90 90   XYZ
    dof rx rz
    limits (-90.0 90.0)
           (-45.0 45.0)
  end
  begin
     id 22 
     name lfingers
     direction 1 -4.48871e-011 1.88632e-026   
     length 0.515032   
     axis -1.20625e-014 90 90   XYZ
    dof rx
    limits (0.0 90.0)
  end
  begin
     id 23
     name lthumb
     direction 0.707107 -6.34964e-011 0.707107   
     length 0.739485   
     axis -90 45 6.32835e-014   XYZ
    dof rx rz
    limits (-45.0 45.0)
           (-45.0 45.0)
  end
  begin
     id 24 
     name rclavicle
     direction -0.949427 0.303202 0.0815894   
     length 3.76167  
     axis 0 0 0   XYZ 
    dof ry rz
    limits (-10.0 20.0)
           (-20.0 0.0)
  end
  begin
     id 25 
     name rhumerus
     direction -1 -4.48971e-011 -6.43969e-018  
     length 4.88702   
     axis 180 30 90   XYZ
    dof rx ry rz
    limits (-90.0 60.0)
           (-90.0 90.0)
           (-90.0 90.0)
  end
  begin
     id 26 
     name rradius
     direction -1 -4.48987e-011 5.46662e-027   
     length 3.22603   
     axis 180 30 90   XYZ
    dof rx
    limits (-10.0 170.0)
  end
  begin
     id 27 
     name rwrist
     direction -1 -4.48956e-011 4.72476e-027   
     length 1.61302   
     axis -2.72261e-015 -90 -90   XYZ
    dof ry
    limits (-180.0 0.0)
  end
  begin
     id 28
     name rhand
     direction -1 -4.4889e-011 9.43571e-027   
     length 0.716293   
     axis -6.0311e-015 -90 -90   XYZ
    dof rx rz
    limits (-90.0 90.0)
           (-45.0 45.0)
  end
  begin
     id 29
     name rfingers
     direction -1 -4.48887e-011 1.88701e-026   
     length 0.577494   
     axis -1.20625e-014 -90 -90   XYZ
    dof rx
    limits (0.0 90.0)
  end
  begin
     id 30
     name rthumb
     direction -0.707107 -6.34825e-011 0.707107   
     length 0.829169   
     axis -90 -45 -6.32835e-014   XYZ
    dof rx rz
    limits (-45.0 45.0)
           (-45.0 45.0)
  end
:hierarchy
  begin
    root lhipjoint rhipjoint lowerback
    lhipjoint lfemur
    lfemur ltibia
    ltibia lfoot
    lfoot ltoes
    rhipjoint rfemur
    rfemur rtibia
    rtibia rfoot
    rfoot rtoes
    lowerback upperback
    upperback thorax
    thorax lowerneck lclavicle rclavicle
    lowerneck upperneck
    upperneck head
    lclavicle lhumerus
    lhumerus lradius
    lradius lwrist
    lwrist lhand lthumb
    lhand lfingers
    rclavicle rhumerus
    rhumerus rradius
    rradius rwrist
    rwrist rhand rthumb
    rhand rfingers
  end

#!OML:ASF F:\VICON\USERDATA\INSTALL\rory3\rory3.ASF
:FULLY-SPECIFIED
:DEGREES
948
root 1.48322 18.555 0.526731 32.0912 87.3533 19.3332
lowerback -10.9394 -1.8056 -3.04005
upperback -4.0323 -1.77165 -3.56669
thorax 1.90509 -0.796277 -2.2095
lowerneck -8.16634 -18.9635 -9.74752
upperneck 5.08847 -25.2536 9.69287
head 5.22658 -12.1806 2.16957
rclavicle 3.8353e-014 3.97569e-014
rhumerus 22.1395 -67.1629 -37.4352
rradius 61.9398
rwrist -198.605
rhand -10.9259 -11.5772
rfingers 7.12502
rthumb 15.0919 -41.007
lclavicle 3.8353e-014 3.97569e-014
lhumerus -77.8451 -38.8445 87.9537
lradius 103.996
lwrist 180.967
lhand -20.5324 -4.72558
lfingers 7.12502
lthumb 5.82585 25.1743
rfemur -9.0081 -8.76058 16.8917
rtibia -1.27222e-014
rfoot -1.72605 11.7188
rtoes -9.5964
lfemur -15.9657 8.89552 -19.5155
ltibia 16.6583
lfoot -13.2522 -0.628509
ltoes -24.4725
949
root 1.48567 18.5531 0.524637 30.4597 87.2934 17.6758
lowerback -11.0093 -1.88469 -3.00396
upperback -3.99308 -1.87608 -3.55808
thorax 1.98159 -0.849506 -2.23705
lowerneck -7.90528 -19.2087 -9.77422
upperneck 4.54118 -25.6125 10.2133
head 5.1215 -12.3498 2.31127
rclavicle 3.95209e-014 6.99722e-014
rhumerus 22.869 -67.0567 -38.2487
rradius 61.8205
rwrist -198.483
rhand -10.9239 -11.5945
rfingers 7.12502
rthumb 15.0938 -41.0241
lclavicle 3.95209e-014 6.99722e-014
lhumerus -77.7923 -38.7007 87.9049
lradius 103.88
lwrist 180.903
lhand -20.3652 -4.68943
lfingers 7.12502
lthumb 5.98726 25.206
rfemur -9.03997 -8.66937 16.9364
rtibia -1.15295e-014
rfoot -1.7345 11.7319
rtoes -9.77908
lfemur -16.016 8.92636 -19.4715
ltibia 16.7055
lfoot -13.2414 -0.602773
ltoes -24.3223
950
root 1.48608 18.5524 0.52271 27.8235 87.2157 15.0618
lowerback -10.9834 -1.95947 -2.95952
upperback -3.97173 -1.98408 -3.52011
thorax 1.98774 -0.904579 -2.23554
lowerneck -7.56205 -19.4147 -9.8088
upperneck 3.94365 -25.919 10.7721
head 4.9924 -12.4986 2.48051
rclavicle -3.11843e-015 -2.06736e-014
rhumerus 23.4709 -66.8825 -38.9496
rradius 61.7714
rwrist -198.413
rhand -10.912 -11.5426
rfingers 7.12502
rthumb 15.1053 -40.9714
lclavicle -3.11843e-015 -2.06736e-014
lhumerus -77.6395 -38.5457 87.8886
lradius 103.625
lwrist 180.897
lhand -20.0338 -4.55576
lfingers 7.12502
lthumb 6.30714 25.3303
rfemur -9.02171 -8.537 17.0147
rtibia -9.14409e-015
rfoot -1.77742 11.7316
rtoes -10.057
lfemur -15.9936 8.92557 -19.3733
ltibia 16.7251
lfoot -13.2471 -0.464843
ltoes -24.5278
951
root 1.48786 18.5541 0.518302 27.0344 87.0772 14.278
lowerback -10.9704 -2.04656 -3.00002
upperback -3.98586 -2.09649 -3.51111
thorax 1.96576 -0.960038 -2.21682
lowerneck -7.2564 -19.606 -9.78014
upperneck 3.45269 -26.2033 11.2161
head 4.87839 -12.6396 2.60752
rclavicle 1.41386e-014 -1.59028e-015
rhumerus 24.0745 -66.6556 -39.677
rradius 61.6812
rwrist -198.507
rhand -10.8733 -11.4778
rfingers 7.12502
rthumb 15.1425 -40.9038
lclavicle 1.41386e-014 -1.59028e-015
lhumerus -77.7867 -38.2527 87.7888
lradius 103.788
lwrist 180.793
lhand -19.8711 -4.57091
lfingers 7.12502
lthumb 6.46427 25.3104
rfemur -9.03516 -8.39879 16.9724
rtibia -9.54166e-015
rfoot -1.77773 11.6948
rtoes -10.065
lfemur -15.926 8.87981 -19.388
ltibia 16.7206
lfoot -13.3149 -0.284755
ltoes -24.7626
952
root 1.49146 18.5551 0.517183 26.7484 86.9462 14.0158
lowerback -10.9739 -2.14639 -3.11663
upperback -3.9816 -2.21742 -3.47715
thorax 1.97585 -1.01963 -2.13158
lowerneck -7.12528 -19.7801 -9.74166
upperneck 3.18665 -26.4562 11.5084
head 4.83655 -12.7604 2.66993
rclavicle -4.98453e-014 -5.725e-014
rhumerus 24.9128 -66.4853 -40.5966
rradius 61.5513
rwrist -198.594
rhand -10.8087 -11.4678
rfingers 7.12502
rthumb 15.2048 -40.8891
lclavicle -4.98453e-014 -5.725e-014
lhumerus -78.086 -37.7383 87.5949
lradius 104.268
lwrist 180.655
lhand -20.0234 -4.54013
lfingers 7.12502
lthumb 6.31719 25.3457
rfemur -9.02215 -8.27503 16.9206
rtibia 1.43125e-014
rfoot -1.79146 11.6534
rtoes -10.2543
lfemur -15.8457 8.989 -19.4303
ltibia 16.7056
lfoot -13.3385 -0.285319
ltoes -24.6514
